<svg id="svg" xmlns="http://www.w3.org/2000/svg" xmlns:xlink="http://www.w3.org/1999/xlink" width="400" height="398.63481228668945" viewBox="0, 0, 400,398.63481228668945"><g id="svgg"><path id="path0" d="M181.256 5.751 C 178.624 6.001,176.201 6.320,175.872 6.462 C 175.543 6.603,173.480 6.927,171.286 7.182 C 165.790 7.820,158.290 9.107,157.328 9.577 C 156.889 9.791,154.377 10.438,151.745 11.014 C 149.113 11.590,146.555 12.150,146.062 12.259 C 145.568 12.367,145.165 12.581,145.165 12.733 C 145.165 12.885,144.222 13.240,143.071 13.522 C 139.197 14.469,135.655 15.567,135.524 15.860 C 135.452 16.021,134.048 16.576,132.403 17.095 C 130.758 17.614,128.514 18.456,127.418 18.965 C 123.994 20.556,121.554 21.535,121.015 21.535 C 120.729 21.535,120.259 21.765,119.969 22.046 C 119.679 22.326,118.096 23.153,116.451 23.882 C 114.806 24.611,113.370 25.332,113.260 25.483 C 113.151 25.633,111.670 26.357,109.970 27.090 C 108.270 27.823,106.879 28.563,106.879 28.735 C 106.879 28.907,106.206 29.376,105.384 29.778 C 104.561 30.180,103.711 30.912,103.495 31.406 C 103.278 31.899,102.964 32.303,102.797 32.303 C 102.629 32.303,102.493 32.931,102.493 33.699 C 102.493 34.467,102.672 35.095,102.891 35.095 C 103.111 35.095,103.290 35.328,103.290 35.613 C 103.290 37.011,105.447 39.439,106.909 39.686 C 108.427 39.943,111.502 39.333,111.734 38.729 C 111.806 38.542,113.210 37.803,114.855 37.088 C 116.500 36.372,117.936 35.654,118.046 35.494 C 118.156 35.333,119.591 34.615,121.236 33.898 C 122.881 33.182,124.319 32.454,124.431 32.281 C 124.622 31.987,125.452 31.655,130.010 30.050 C 130.997 29.702,131.894 29.280,132.004 29.112 C 132.114 28.945,133.998 28.220,136.191 27.502 C 138.385 26.784,140.270 26.061,140.380 25.897 C 140.560 25.627,146.097 24.019,150.134 23.064 C 151.003 22.858,151.900 22.537,152.128 22.351 C 152.356 22.164,154.516 21.626,156.929 21.156 C 159.342 20.686,162.069 20.130,162.988 19.921 C 163.908 19.712,165.104 19.541,165.647 19.541 C 166.189 19.541,166.693 19.384,166.766 19.191 C 166.955 18.694,179.111 17.261,187.836 16.707 C 195.635 16.211,210.704 16.428,218.146 17.143 C 225.759 17.874,232.901 18.875,232.901 19.211 C 232.901 19.393,233.250 19.541,233.676 19.541 C 234.858 19.541,246.605 21.970,247.059 22.308 C 247.278 22.472,249.970 23.292,253.041 24.131 C 256.112 24.970,258.714 25.779,258.824 25.929 C 258.933 26.079,260.538 26.704,262.389 27.317 C 264.241 27.930,266.788 28.944,268.050 29.570 C 269.312 30.196,270.528 30.708,270.752 30.708 C 271.187 30.708,274.043 31.967,274.377 32.306 C 274.487 32.418,276.012 33.125,277.767 33.879 C 279.521 34.632,281.047 35.366,281.157 35.510 C 281.266 35.654,282.612 36.364,284.148 37.089 C 285.683 37.813,287.029 38.535,287.139 38.693 C 287.248 38.851,288.443 39.535,289.793 40.214 C 291.143 40.893,292.310 41.590,292.385 41.761 C 292.461 41.933,293.535 42.579,294.773 43.196 C 296.010 43.814,297.613 44.846,298.334 45.489 C 299.055 46.133,299.785 46.660,299.957 46.660 C 300.402 46.660,306.520 50.866,307.796 52.049 C 308.384 52.595,309.056 53.041,309.290 53.041 C 309.523 53.041,310.400 53.669,311.238 54.437 C 312.077 55.204,312.839 55.833,312.933 55.833 C 313.194 55.833,318.661 60.471,320.239 62.032 C 321.007 62.791,321.774 63.412,321.944 63.411 C 322.519 63.409,337.702 79.130,338.095 80.135 C 338.155 80.289,339.197 81.478,340.412 82.779 C 341.626 84.080,343.075 85.907,343.631 86.839 C 344.187 87.772,344.778 88.534,344.943 88.534 C 345.109 88.534,345.802 89.432,346.484 90.528 C 347.166 91.625,347.911 92.522,348.139 92.522 C 348.367 92.522,348.554 92.698,348.554 92.913 C 348.554 93.340,350.828 96.907,352.118 98.504 C 352.561 99.053,352.927 99.700,352.932 99.942 C 352.937 100.184,353.345 100.833,353.838 101.385 C 354.332 101.937,355.067 102.995,355.471 103.736 C 357.217 106.938,357.542 107.489,357.796 107.682 C 358.356 108.107,364.947 121.037,366.536 124.826 C 367.042 126.032,367.570 127.109,367.710 127.218 C 367.850 127.328,368.545 129.029,369.253 130.999 C 369.961 132.969,370.667 134.674,370.822 134.788 C 370.978 134.902,371.628 136.700,372.267 138.784 C 372.907 140.867,373.663 143.021,373.948 143.569 C 374.532 144.695,376.869 153.637,376.869 154.746 C 376.869 155.142,377.037 155.527,377.243 155.600 C 377.617 155.733,379.335 164.400,379.879 168.893 C 380.038 170.209,380.303 171.376,380.467 171.486 C 382.702 172.972,382.659 225.634,380.422 226.454 C 380.223 226.527,380.060 226.997,380.060 227.498 C 380.060 229.409,377.695 242.167,377.284 242.473 C 377.137 242.582,376.711 244.018,376.339 245.663 C 375.208 250.657,374.472 253.405,374.070 254.125 C 373.860 254.502,373.122 256.565,372.429 258.711 C 371.737 260.857,371.017 262.810,370.830 263.052 C 370.433 263.564,368.513 268.575,368.210 269.890 C 368.096 270.384,367.870 270.788,367.707 270.788 C 367.545 270.788,366.822 272.313,366.102 274.177 C 365.381 276.042,364.662 277.567,364.504 277.567 C 364.346 277.567,363.537 279.189,362.706 281.171 C 361.875 283.152,360.998 284.902,360.757 285.059 C 360.516 285.216,359.793 286.466,359.149 287.836 C 358.505 289.207,357.865 290.329,357.727 290.329 C 357.588 290.329,356.858 291.534,356.105 293.006 C 355.352 294.479,354.429 295.997,354.054 296.380 C 353.680 296.762,353.003 297.801,352.551 298.687 C 352.099 299.574,351.581 300.299,351.401 300.299 C 351.220 300.299,350.661 301.099,350.159 302.076 C 349.656 303.053,348.955 304.175,348.600 304.569 C 347.308 306.004,345.763 308.233,345.763 308.660 C 345.763 308.901,345.498 309.199,345.175 309.323 C 344.852 309.447,344.064 310.384,343.425 311.405 C 342.785 312.425,341.345 314.239,340.224 315.436 C 339.103 316.632,338.185 317.718,338.185 317.849 C 338.185 318.218,322.328 334.596,321.970 334.596 C 321.864 334.596,320.527 335.718,318.998 337.089 C 317.469 338.460,316.012 339.652,315.761 339.739 C 315.510 339.826,314.873 340.409,314.347 341.035 C 313.820 341.661,313.161 342.173,312.882 342.173 C 312.603 342.173,311.767 342.800,311.023 343.565 C 310.279 344.330,309.487 344.959,309.261 344.961 C 309.036 344.963,308.307 345.459,307.642 346.062 C 306.309 347.270,301.103 350.832,299.447 351.668 C 298.869 351.960,297.989 352.578,297.491 353.042 C 296.994 353.505,295.460 354.461,294.083 355.167 C 292.706 355.872,291.342 356.663,291.054 356.925 C 290.071 357.814,281.285 362.379,273.380 366.108 C 270.565 367.436,265.837 369.292,265.269 369.292 C 265.051 369.292,264.812 369.445,264.739 369.632 C 264.666 369.818,263.081 370.468,261.216 371.076 C 259.352 371.683,257.288 372.419,256.630 372.711 C 255.406 373.254,249.368 374.969,246.859 375.486 C 246.092 375.644,245.374 375.902,245.264 376.060 C 245.055 376.360,235.723 378.280,232.303 378.726 C 231.206 378.869,230.219 379.119,230.110 379.281 C 229.553 380.103,209.798 381.643,199.801 381.643 C 189.804 381.643,170.049 380.103,169.492 379.281 C 169.382 379.119,168.395 378.869,167.298 378.726 C 163.935 378.287,154.548 376.386,154.337 376.101 C 154.227 375.953,151.808 375.245,148.960 374.529 C 146.112 373.812,143.689 373.102,143.576 372.951 C 143.463 372.800,141.755 372.166,139.781 371.542 C 137.807 370.919,135.294 369.995,134.197 369.489 C 133.101 368.984,131.396 368.270,130.409 367.902 C 129.422 367.535,128.076 366.956,127.418 366.616 C 126.760 366.276,124.972 365.477,123.446 364.841 C 121.919 364.206,120.574 363.549,120.455 363.381 C 120.336 363.214,118.893 362.483,117.248 361.756 C 115.603 361.029,114.167 360.297,114.058 360.129 C 113.948 359.961,112.706 359.244,111.297 358.535 C 109.888 357.827,108.514 357.026,108.245 356.756 C 107.975 356.486,106.709 355.742,105.432 355.102 C 104.154 354.462,102.798 353.632,102.419 353.257 C 102.039 352.882,101.003 352.205,100.116 351.753 C 99.230 351.301,98.504 350.755,98.504 350.540 C 98.504 350.325,98.235 350.150,97.906 350.150 C 97.577 350.150,97.308 349.991,97.308 349.797 C 97.308 349.604,96.994 349.339,96.610 349.210 C 95.420 348.809,93.581 347.593,92.134 346.251 C 91.373 345.544,90.565 344.963,90.340 344.961 C 90.115 344.959,89.322 344.330,88.578 343.565 C 87.834 342.800,86.995 342.173,86.713 342.173 C 86.430 342.173,85.872 341.758,85.473 341.251 C 85.073 340.744,84.451 340.161,84.090 339.955 C 83.729 339.749,82.224 338.504,80.746 337.188 C 79.267 335.872,77.926 334.744,77.765 334.680 C 77.384 334.530,64.274 321.419,64.123 321.038 C 64.060 320.878,62.931 319.537,61.615 318.058 C 60.299 316.579,59.054 315.074,58.849 314.714 C 58.643 314.353,58.060 313.731,57.552 313.331 C 57.045 312.931,56.630 312.373,56.630 312.091 C 56.630 311.809,56.004 310.969,55.239 310.226 C 54.473 309.482,53.845 308.677,53.843 308.436 C 53.840 308.196,53.210 307.352,52.443 306.562 C 51.675 305.771,51.047 305.006,51.047 304.861 C 51.047 304.716,50.240 303.443,49.254 302.032 C 48.267 300.622,47.181 298.927,46.840 298.267 C 46.498 297.606,45.914 296.758,45.542 296.380 C 45.170 296.003,44.342 294.649,43.702 293.372 C 43.062 292.095,42.317 290.829,42.047 290.559 C 41.778 290.289,41.004 288.974,40.329 287.636 C 39.653 286.297,38.948 285.108,38.760 284.992 C 38.573 284.877,37.907 283.563,37.279 282.072 C 36.652 280.581,35.824 278.913,35.439 278.365 C 35.054 277.817,34.248 276.112,33.649 274.576 C 33.049 273.041,32.425 271.693,32.262 271.581 C 31.985 271.390,31.643 270.528,30.050 266.002 C 29.702 265.015,29.288 264.118,29.130 264.008 C 28.972 263.898,28.233 261.924,27.487 259.621 C 26.742 257.318,26.024 255.344,25.892 255.234 C 25.649 255.033,24.175 249.773,23.433 246.461 C 23.211 245.474,22.902 244.576,22.744 244.467 C 22.443 244.257,20.523 234.926,20.077 231.505 C 19.935 230.409,19.685 229.422,19.523 229.312 C 18.713 228.763,17.163 209.058,17.156 199.202 C 17.148 188.825,18.726 168.694,19.547 168.694 C 19.707 168.694,19.960 167.572,20.110 166.201 C 20.259 164.831,20.533 163.081,20.718 162.313 C 20.902 161.545,21.369 159.167,21.756 157.029 C 22.142 154.890,22.589 153.141,22.749 153.141 C 22.909 153.141,23.124 152.647,23.226 152.044 C 23.651 149.539,25.643 142.562,25.969 142.439 C 26.163 142.366,26.321 142.090,26.321 141.825 C 26.321 141.039,28.734 133.835,29.072 133.608 C 29.244 133.494,29.854 132.028,30.429 130.352 C 31.003 128.676,31.828 126.613,32.261 125.766 C 32.694 124.920,33.517 123.157,34.088 121.848 C 34.659 120.539,35.262 119.373,35.427 119.256 C 35.592 119.139,36.338 117.607,37.086 115.852 C 37.833 114.098,38.849 112.118,39.343 111.452 C 42.373 107.375,39.426 102.094,34.119 102.094 C 32.102 102.094,29.765 103.935,29.267 105.918 C 29.135 106.447,28.899 106.879,28.743 106.879 C 28.587 106.879,27.854 108.270,27.114 109.970 C 26.374 111.670,25.637 113.153,25.477 113.265 C 25.317 113.377,24.903 114.229,24.557 115.159 C 24.211 116.089,23.645 117.610,23.299 118.540 C 22.953 119.470,22.534 120.322,22.367 120.434 C 22.201 120.546,21.486 122.248,20.779 124.216 C 20.071 126.184,19.344 127.978,19.162 128.204 C 18.981 128.430,18.266 130.409,17.575 132.602 C 16.883 134.796,16.071 137.129,15.769 137.787 C 15.468 138.445,14.718 140.957,14.103 143.370 C 13.488 145.783,12.876 147.846,12.743 147.956 C 12.449 148.198,11.432 152.462,10.508 157.328 C 10.133 159.302,9.712 161.007,9.574 161.117 C 8.991 161.578,6.791 178.772,6.783 182.928 C 6.781 184.066,6.600 185.109,6.381 185.244 C 6.127 185.401,5.982 190.566,5.982 199.425 C 5.982 208.449,6.123 213.360,6.381 213.360 C 6.600 213.360,6.782 214.302,6.784 215.454 C 6.793 219.792,8.961 237.180,9.556 237.687 C 9.685 237.797,10.295 240.487,10.911 243.665 C 11.527 246.843,12.266 249.894,12.552 250.444 C 12.839 250.995,13.658 253.689,14.374 256.431 C 15.089 259.172,15.796 261.505,15.943 261.615 C 16.091 261.725,16.806 263.699,17.532 266.002 C 18.259 268.305,18.982 270.279,19.138 270.389 C 19.295 270.499,19.789 271.575,20.237 272.782 C 21.115 275.147,24.498 282.570,25.143 283.549 C 25.360 283.878,26.072 285.314,26.726 286.740 C 27.380 288.166,28.092 289.601,28.309 289.930 C 28.526 290.259,29.379 291.874,30.204 293.519 C 31.030 295.165,31.845 296.572,32.017 296.648 C 32.189 296.723,32.865 297.845,33.519 299.140 C 34.172 300.436,34.884 301.496,35.100 301.496 C 35.317 301.496,35.494 301.673,35.494 301.890 C 35.494 302.107,36.346 303.575,37.388 305.151 C 38.430 306.728,39.568 308.479,39.918 309.044 C 40.822 310.504,44.456 315.398,45.862 317.049 C 46.516 317.817,47.052 318.663,47.055 318.929 C 47.057 319.196,47.428 319.611,47.879 319.853 C 48.330 320.094,48.824 320.614,48.976 321.008 C 50.202 324.188,74.622 348.609,77.792 349.828 C 78.188 349.980,78.710 350.474,78.951 350.925 C 79.192 351.376,79.608 351.747,79.874 351.749 C 80.141 351.751,80.987 352.289,81.755 352.943 C 83.983 354.843,89.623 358.923,90.021 358.923 C 90.221 358.923,90.771 359.367,91.243 359.910 C 91.715 360.453,92.718 361.155,93.473 361.470 C 94.228 361.786,95.177 362.374,95.583 362.777 C 95.989 363.180,97.486 364.118,98.908 364.862 C 100.331 365.606,101.765 366.439,102.094 366.712 C 102.423 366.985,103.679 367.713,104.885 368.330 C 106.092 368.946,107.168 369.576,107.278 369.729 C 107.388 369.881,108.824 370.601,110.469 371.327 C 112.114 372.054,113.549 372.769,113.659 372.915 C 113.769 373.062,115.429 373.862,117.348 374.694 C 119.267 375.525,120.837 376.355,120.837 376.537 C 120.837 376.720,121.047 376.869,121.302 376.869 C 121.883 376.869,128.053 379.274,128.671 379.741 C 128.921 379.931,130.806 380.625,132.858 381.284 C 134.911 381.943,137.154 382.744,137.842 383.063 C 138.530 383.383,140.863 384.106,143.026 384.670 C 145.189 385.234,147.498 385.939,148.156 386.237 C 148.814 386.535,151.864 387.274,154.935 387.879 C 158.006 388.484,160.608 389.098,160.718 389.243 C 161.136 389.798,179.365 392.024,183.492 392.024 C 184.565 392.024,185.444 392.203,185.444 392.423 C 185.444 392.681,190.429 392.822,199.601 392.822 C 208.774 392.822,213.759 392.681,213.759 392.423 C 213.759 392.203,214.791 392.022,216.052 392.020 C 220.515 392.013,238.086 389.777,238.086 389.217 C 238.086 389.063,238.991 388.816,240.097 388.669 C 242.895 388.298,250.879 386.505,251.844 386.031 C 252.283 385.816,254.610 385.092,257.016 384.422 C 259.422 383.752,261.575 383.058,261.802 382.879 C 262.028 382.701,264.053 381.988,266.301 381.296 C 268.549 380.603,270.389 379.862,270.389 379.649 C 270.389 379.436,270.604 379.262,270.867 379.262 C 271.668 379.262,278.131 376.736,278.666 376.214 C 278.942 375.945,279.570 375.611,280.062 375.471 C 281.779 374.982,285.942 373.158,285.942 372.895 C 285.942 372.749,286.974 372.209,288.235 371.694 C 289.497 371.180,291.032 370.410,291.647 369.983 C 292.262 369.556,293.878 368.653,295.236 367.976 C 296.595 367.299,297.969 366.486,298.289 366.168 C 298.610 365.851,299.466 365.344,300.193 365.040 C 300.919 364.736,301.835 364.178,302.228 363.799 C 302.621 363.421,303.635 362.752,304.482 362.313 C 305.328 361.874,306.753 360.934,307.647 360.223 C 308.541 359.512,309.467 358.929,309.704 358.927 C 309.942 358.925,310.660 358.390,311.299 357.738 C 311.939 357.086,312.612 356.548,312.795 356.541 C 313.190 356.528,319.582 351.678,319.774 351.246 C 319.847 351.082,320.090 350.947,320.315 350.947 C 320.539 350.947,321.076 350.499,321.507 349.950 C 321.938 349.402,322.542 348.953,322.849 348.953 C 323.155 348.953,323.804 348.415,324.290 347.757 C 324.777 347.099,325.401 346.560,325.678 346.560 C 325.955 346.560,326.857 345.753,327.682 344.766 C 328.507 343.779,329.368 342.971,329.596 342.970 C 330.384 342.968,344.241 328.554,347.422 324.427 C 347.929 323.769,348.750 322.903,349.247 322.503 C 349.743 322.104,350.150 321.533,350.150 321.236 C 350.150 320.939,350.598 320.343,351.147 319.912 C 351.695 319.480,352.144 318.974,352.144 318.786 C 352.144 318.598,352.861 317.659,353.739 316.699 C 354.616 315.739,355.334 314.893,355.334 314.819 C 355.334 314.459,357.656 311.101,358.624 310.060 C 359.227 309.412,359.721 308.747,359.721 308.582 C 359.721 308.418,360.484 307.126,361.416 305.712 C 363.723 302.212,365.849 298.786,366.749 297.116 C 367.161 296.352,367.736 295.473,368.028 295.162 C 368.319 294.850,368.999 293.597,369.539 292.376 C 370.079 291.155,370.665 290.061,370.842 289.944 C 371.285 289.650,376.471 279.119,376.471 278.513 C 376.471 278.244,376.710 277.783,377.003 277.490 C 377.296 277.197,378.139 275.345,378.876 273.374 C 379.613 271.403,380.333 269.701,380.476 269.591 C 380.803 269.341,383.649 260.931,383.649 260.215 C 383.649 259.925,383.820 259.628,384.029 259.555 C 384.238 259.482,384.978 257.178,385.674 254.437 C 386.370 251.695,387.074 249.362,387.239 249.252 C 387.404 249.143,388.109 246.092,388.807 242.473 C 389.504 238.853,390.233 235.599,390.425 235.242 C 391.727 232.822,393.220 213.462,393.220 199.003 C 393.220 184.601,391.686 164.910,390.439 163.310 C 390.268 163.091,389.921 161.655,389.668 160.120 C 389.005 156.101,387.524 149.386,387.248 149.153 C 387.119 149.043,386.776 147.966,386.486 146.760 C 385.540 142.817,384.329 138.986,383.986 138.850 C 383.800 138.777,383.649 138.497,383.649 138.227 C 383.649 137.279,380.796 128.814,380.476 128.814 C 380.298 128.814,380.060 128.410,379.947 127.916 C 379.833 127.423,379.346 126.032,378.863 124.826 C 378.381 123.619,377.893 122.228,377.780 121.735 C 377.667 121.241,377.448 120.837,377.294 120.837 C 377.140 120.837,376.408 119.447,375.668 117.747 C 374.928 116.047,374.197 114.566,374.043 114.457 C 373.889 114.347,373.168 112.911,372.441 111.266 C 371.715 109.621,371.006 108.185,370.867 108.076 C 370.728 107.966,370.123 106.889,369.523 105.683 C 368.924 104.477,367.819 102.562,367.068 101.428 C 366.317 100.294,365.703 99.172,365.703 98.935 C 365.703 98.698,365.370 98.172,364.964 97.765 C 364.557 97.359,363.951 96.506,363.617 95.871 C 363.284 95.236,362.706 94.133,362.334 93.420 C 361.961 92.707,361.524 92.124,361.362 92.124 C 361.199 92.124,360.461 91.047,359.721 89.731 C 358.981 88.415,358.234 87.338,358.061 87.338 C 357.889 87.338,357.492 86.844,357.179 86.241 C 356.652 85.224,353.667 81.277,351.673 78.963 C 351.201 78.415,350.476 77.398,350.063 76.703 C 349.650 76.008,348.872 75.151,348.335 74.799 C 347.798 74.447,347.359 73.939,347.359 73.670 C 347.360 73.401,346.751 72.552,346.006 71.785 C 345.261 71.017,342.931 68.594,340.828 66.401 C 338.725 64.207,336.820 62.233,336.594 62.014 C 336.368 61.795,334.614 60.084,332.698 58.212 C 327.883 53.510,323.119 49.306,322.231 48.976 C 321.822 48.824,321.290 48.330,321.049 47.879 C 320.808 47.428,320.369 47.059,320.074 47.059 C 319.779 47.059,318.798 46.341,317.894 45.464 C 316.990 44.586,316.149 43.868,316.025 43.868 C 315.901 43.868,315.211 43.420,314.492 42.871 C 313.773 42.323,313.021 41.874,312.820 41.874 C 312.619 41.874,312.256 41.556,312.013 41.167 C 311.770 40.777,310.740 40.031,309.724 39.509 C 308.708 38.986,307.876 38.416,307.876 38.241 C 307.876 38.067,307.257 37.630,306.499 37.270 C 305.742 36.911,304.702 36.230,304.188 35.756 C 303.674 35.283,302.212 34.372,300.940 33.732 C 299.668 33.091,298.420 32.363,298.167 32.112 C 297.914 31.861,296.659 31.145,295.378 30.520 C 294.097 29.894,292.830 29.164,292.563 28.897 C 292.296 28.630,290.742 27.827,289.109 27.113 C 287.477 26.400,286.047 25.669,285.931 25.490 C 285.815 25.311,284.379 24.595,282.740 23.900 C 281.102 23.204,279.658 22.474,279.533 22.276 C 279.320 21.942,276.331 20.703,273.929 19.953 C 273.354 19.773,272.456 19.355,271.935 19.023 C 271.414 18.691,269.462 17.916,267.597 17.300 C 265.733 16.684,264.117 16.055,264.006 15.902 C 263.896 15.750,261.742 15.035,259.221 14.315 C 256.699 13.595,254.546 12.880,254.437 12.727 C 254.327 12.574,251.635 11.862,248.455 11.145 C 245.274 10.428,242.582 9.719,242.473 9.570 C 242.248 9.265,230.562 7.348,226.421 6.937 C 224.940 6.790,223.729 6.546,223.729 6.396 C 223.729 5.314,191.085 4.819,181.256 5.751 " stroke="none" fill="#ecac04" fill-rule="evenodd"></path><path id="path1" d="M79.362 235.467 L 79.362 320.638 86.142 320.638 L 92.921 320.638 92.921 250.249 C 92.921 211.535,92.983 179.860,93.058 179.860 C 93.209 179.860,95.284 181.629,97.849 183.943 C 98.758 184.763,99.714 185.436,99.973 185.439 C 100.232 185.441,100.828 185.982,101.296 186.640 C 101.765 187.298,102.389 187.836,102.684 187.836 C 102.978 187.836,103.642 188.330,104.158 188.933 C 104.674 189.536,105.877 190.562,106.831 191.212 C 107.785 191.863,108.651 192.617,108.755 192.889 C 108.859 193.161,109.512 193.746,110.205 194.190 C 112.722 195.801,113.643 196.546,116.769 199.502 C 117.274 199.979,118.171 200.686,118.763 201.074 C 120.063 201.926,122.402 203.917,124.177 205.683 C 124.894 206.396,125.647 206.983,125.851 206.988 C 126.055 206.993,126.939 207.645,127.817 208.437 C 128.694 209.229,130.030 210.346,130.786 210.920 C 131.543 211.494,132.799 212.547,133.578 213.258 C 134.357 213.970,135.125 214.553,135.284 214.554 C 135.444 214.555,136.145 215.184,136.844 215.952 C 137.543 216.720,138.344 217.348,138.626 217.348 C 138.907 217.348,139.415 217.745,139.755 218.229 C 140.094 218.714,140.711 219.297,141.126 219.526 C 142.001 220.007,145.086 222.552,147.066 224.427 C 147.819 225.140,148.565 225.723,148.724 225.723 C 148.883 225.723,149.435 226.171,149.950 226.720 C 150.465 227.268,151.053 227.717,151.255 227.717 C 151.458 227.717,152.119 228.210,152.725 228.814 C 154.444 230.527,157.502 233.052,158.501 233.582 C 158.999 233.847,159.706 234.520,160.072 235.078 C 160.437 235.635,160.985 236.092,161.290 236.092 C 161.594 236.092,162.296 236.630,162.850 237.288 C 163.404 237.946,163.977 238.485,164.124 238.485 C 164.271 238.485,164.956 238.950,165.645 239.519 C 168.735 242.066,170.506 243.575,172.034 244.960 C 172.939 245.780,173.891 246.453,174.150 246.456 C 174.410 246.458,175.005 246.999,175.474 247.657 C 175.942 248.315,176.538 248.856,176.797 248.858 C 177.056 248.861,178.015 249.534,178.928 250.354 C 182.867 253.890,186.420 256.830,186.757 256.830 C 186.868 256.830,187.650 257.465,188.495 258.241 C 191.026 260.567,191.554 261.014,193.220 262.235 C 194.098 262.879,194.962 263.636,195.141 263.918 C 196.767 266.478,199.542 266.800,201.927 264.704 C 204.876 262.114,206.469 260.818,206.704 260.818 C 206.822 260.818,207.515 260.278,208.244 259.618 C 211.210 256.937,211.621 256.587,213.019 255.560 C 214.639 254.370,215.915 253.275,217.933 251.346 C 218.679 250.633,219.409 250.050,219.557 250.050 C 219.704 250.050,220.389 249.589,221.079 249.026 C 224.133 246.532,225.456 245.407,226.258 244.619 C 226.731 244.155,227.804 243.311,228.641 242.745 C 229.479 242.178,230.524 241.256,230.963 240.697 C 231.403 240.138,232.006 239.681,232.303 239.681 C 232.600 239.681,233.170 239.266,233.570 238.759 C 233.970 238.251,234.598 237.668,234.965 237.463 C 235.665 237.071,238.980 234.278,240.971 232.403 C 241.611 231.800,242.270 231.306,242.434 231.306 C 242.598 231.306,243.154 230.857,243.669 230.309 C 244.184 229.761,244.766 229.312,244.962 229.312 C 245.158 229.312,245.928 228.729,246.673 228.016 C 248.872 225.913,250.037 224.933,252.095 223.455 C 253.163 222.687,254.038 221.891,254.038 221.685 C 254.038 221.479,254.352 221.196,254.736 221.055 C 255.366 220.824,259.812 217.301,261.815 215.446 C 262.253 215.039,263.330 214.179,264.207 213.535 C 265.085 212.890,266.130 211.959,266.529 211.466 C 266.929 210.972,267.507 210.568,267.814 210.568 C 268.120 210.568,268.769 210.030,269.255 209.372 C 269.742 208.714,270.331 208.172,270.564 208.169 C 270.796 208.165,271.829 207.402,272.859 206.474 C 276.325 203.347,280.180 200.199,280.543 200.199 C 280.691 200.199,281.421 199.616,282.167 198.903 C 284.625 196.552,285.700 195.625,287.139 194.616 C 287.920 194.068,289.003 193.217,289.544 192.725 C 292.658 189.897,293.202 189.432,293.398 189.432 C 293.516 189.432,294.265 188.878,295.062 188.200 C 295.859 187.523,297.192 186.401,298.026 185.708 C 298.860 185.014,300.295 183.776,301.216 182.956 C 302.138 182.136,303.026 181.463,303.190 181.461 C 303.355 181.458,303.848 181.097,304.287 180.658 L 305.085 179.860 305.085 250.249 L 305.085 320.638 311.864 320.638 L 318.644 320.638 318.644 235.494 C 318.644 144.908,318.720 148.547,316.886 151.346 C 316.527 151.894,315.984 152.343,315.679 152.343 C 315.375 152.343,314.673 152.881,314.119 153.539 C 313.565 154.197,312.992 154.736,312.845 154.736 C 312.698 154.736,312.013 155.201,311.324 155.770 C 308.234 158.318,306.463 159.826,304.935 161.211 C 304.030 162.031,303.078 162.704,302.819 162.707 C 302.560 162.710,301.964 163.250,301.496 163.908 C 301.027 164.566,300.403 165.105,300.108 165.105 C 299.813 165.105,299.153 165.598,298.640 166.201 C 298.127 166.805,297.219 167.613,296.622 167.997 C 295.469 168.740,293.446 170.455,291.212 172.582 C 290.463 173.295,289.760 173.878,289.649 173.878 C 289.320 173.878,285.685 176.856,282.429 179.792 C 281.619 180.522,280.490 181.365,279.920 181.666 C 279.349 181.966,278.582 182.670,278.216 183.230 C 277.849 183.789,277.300 184.247,276.995 184.247 C 276.691 184.247,275.989 184.786,275.435 185.444 C 274.881 186.102,274.308 186.640,274.161 186.640 C 274.014 186.640,273.330 187.105,272.640 187.674 C 269.550 190.222,267.779 191.731,266.251 193.116 C 265.346 193.935,264.394 194.608,264.135 194.611 C 263.876 194.614,263.280 195.155,262.812 195.813 C 262.343 196.471,261.719 197.009,261.424 197.009 C 261.129 197.009,260.469 197.502,259.956 198.106 C 259.443 198.709,258.552 199.506,257.976 199.877 C 257.401 200.247,255.669 201.638,254.129 202.967 C 252.589 204.296,251.234 205.384,251.119 205.384 C 251.003 205.384,250.312 205.924,249.582 206.583 C 246.617 209.264,246.206 209.614,244.808 210.641 C 243.188 211.831,241.911 212.926,239.893 214.855 C 239.148 215.568,238.412 216.152,238.257 216.152 C 237.977 216.152,233.645 219.672,231.648 221.522 C 231.068 222.059,229.934 222.946,229.128 223.493 C 228.322 224.040,227.303 224.945,226.863 225.504 C 226.424 226.063,225.813 226.520,225.506 226.520 C 225.200 226.520,224.551 227.059,224.065 227.717 C 223.578 228.375,222.989 228.916,222.757 228.919 C 222.524 228.922,221.578 229.595,220.655 230.414 C 216.246 234.329,213.130 236.889,212.777 236.889 C 212.629 236.889,211.899 237.473,211.153 238.185 C 208.695 240.537,207.620 241.464,206.181 242.473 C 204.772 243.461,203.754 244.336,201.282 246.680 C 199.351 248.512,198.766 248.606,197.794 247.240 C 197.332 246.592,196.743 246.058,196.483 246.053 C 196.224 246.047,195.294 245.396,194.417 244.604 C 193.539 243.812,192.193 242.696,191.426 242.123 C 190.658 241.550,189.903 240.886,189.748 240.647 C 189.593 240.408,188.698 239.689,187.760 239.049 C 186.821 238.410,185.631 237.393,185.115 236.790 C 184.599 236.186,183.935 235.693,183.641 235.693 C 183.346 235.693,182.722 235.155,182.253 234.497 C 181.785 233.838,181.189 233.298,180.930 233.295 C 180.671 233.292,179.719 232.619,178.814 231.800 C 177.286 230.415,175.515 228.906,172.425 226.358 C 171.735 225.789,171.051 225.324,170.904 225.324 C 170.757 225.324,170.183 224.786,169.630 224.128 C 169.076 223.470,168.374 222.931,168.069 222.931 C 167.765 222.931,167.216 222.473,166.849 221.914 C 166.483 221.354,165.716 220.651,165.145 220.351 C 164.124 219.814,161.692 217.740,159.300 215.367 C 158.630 214.702,157.932 214.158,157.750 214.158 C 157.442 214.158,153.895 211.280,150.836 208.548 C 150.116 207.906,149.039 207.066,148.443 206.681 C 147.846 206.297,146.938 205.489,146.425 204.885 C 145.912 204.282,145.251 203.789,144.957 203.789 C 144.662 203.789,144.038 203.250,143.569 202.592 C 143.101 201.934,142.505 201.395,142.246 201.394 C 141.987 201.393,141.140 200.810,140.364 200.098 C 139.589 199.386,138.160 198.175,137.188 197.408 C 136.217 196.640,134.788 195.430,134.012 194.718 C 133.237 194.006,132.412 193.423,132.179 193.422 C 131.946 193.421,131.357 192.881,130.871 192.223 C 130.384 191.565,129.735 191.027,129.429 191.027 C 129.122 191.027,128.487 190.539,128.018 189.942 C 127.549 189.345,126.498 188.403,125.683 187.848 C 124.198 186.837,123.175 185.963,120.651 183.549 C 119.906 182.836,119.175 182.253,119.028 182.253 C 118.880 182.253,118.195 181.792,117.505 181.229 C 114.451 178.736,113.129 177.610,112.326 176.823 C 111.853 176.358,110.780 175.515,109.943 174.948 C 109.106 174.381,108.061 173.460,107.621 172.901 C 107.181 172.342,106.578 171.884,106.281 171.884 C 105.984 171.884,105.414 171.480,105.014 170.985 C 104.614 170.490,103.838 169.794,103.290 169.438 C 102.742 169.082,101.838 168.365,101.282 167.845 C 100.726 167.325,99.469 166.275,98.490 165.511 C 97.511 164.747,96.082 163.537,95.314 162.822 C 94.546 162.107,93.772 161.521,93.592 161.519 C 93.413 161.517,92.657 160.932,91.911 160.219 C 89.894 158.290,88.617 157.195,86.997 156.005 C 86.196 155.417,85.093 154.533,84.545 154.041 C 83.997 153.549,82.964 152.618,82.248 151.972 C 79.029 149.069,79.362 139.446,79.362 235.467 " stroke="none" fill="#5c9404" fill-rule="evenodd"></path><path id="path2" d="M98.903 65.725 C 98.903 65.901,98.255 66.754,97.462 67.619 C 96.669 68.484,95.503 69.847,94.869 70.647 C 94.236 71.446,93.179 72.677,92.522 73.381 C 90.747 75.281,90.995 75.919,94.565 78.627 C 95.334 79.210,96.759 80.417,97.732 81.309 C 98.705 82.200,99.692 82.935,99.925 82.940 C 100.158 82.946,100.747 83.490,101.233 84.148 C 101.720 84.806,102.368 85.344,102.675 85.344 C 102.981 85.344,103.559 85.748,103.959 86.241 C 104.359 86.735,105.404 87.668,106.281 88.316 C 107.931 89.533,108.832 90.317,111.339 92.714 C 112.147 93.486,112.929 94.118,113.076 94.118 C 113.224 94.118,113.909 94.578,114.598 95.142 C 117.527 97.533,118.969 98.753,119.778 99.525 C 120.251 99.976,121.342 100.873,122.202 101.519 C 123.790 102.709,125.371 104.069,127.272 105.879 C 127.850 106.429,128.478 106.884,128.668 106.890 C 128.858 106.896,129.809 107.630,130.782 108.522 C 131.756 109.413,133.191 110.619,133.973 111.201 C 134.754 111.783,135.521 112.454,135.676 112.693 C 135.831 112.932,136.725 113.651,137.664 114.291 C 138.602 114.930,139.793 115.947,140.309 116.550 C 140.825 117.154,141.488 117.647,141.783 117.647 C 142.078 117.647,142.702 118.185,143.170 118.843 C 143.639 119.501,144.263 120.040,144.558 120.040 C 144.853 120.040,145.516 120.533,146.032 121.137 C 146.548 121.740,147.686 122.755,148.560 123.392 C 149.434 124.029,150.508 124.877,150.947 125.275 C 152.681 126.852,154.656 128.415,154.914 128.415 C 155.064 128.415,155.639 128.953,156.193 129.611 C 156.746 130.269,157.449 130.808,157.753 130.808 C 158.058 130.808,158.607 131.265,158.973 131.825 C 159.340 132.385,160.107 133.088,160.677 133.389 C 161.248 133.690,162.377 134.533,163.187 135.263 C 163.996 135.993,165.407 137.218,166.321 137.986 C 167.236 138.754,168.611 139.965,169.376 140.678 C 170.141 141.391,170.898 141.974,171.057 141.974 C 171.216 141.974,171.768 142.423,172.283 142.971 C 172.798 143.519,173.386 143.968,173.588 143.968 C 173.791 143.968,174.452 144.462,175.058 145.065 C 176.494 146.496,179.669 149.170,180.858 149.951 C 181.374 150.289,182.181 151.055,182.652 151.654 C 183.122 152.252,183.717 152.742,183.973 152.742 C 184.229 152.742,184.889 153.186,185.439 153.729 C 185.990 154.271,187.787 155.812,189.432 157.152 C 191.077 158.492,193.293 160.337,194.356 161.250 C 195.419 162.164,196.586 163.075,196.948 163.275 C 197.311 163.475,197.751 163.878,197.926 164.172 C 198.391 164.951,200.108 164.825,200.560 163.979 C 200.774 163.579,201.720 162.727,202.662 162.085 C 203.604 161.443,204.798 160.424,205.314 159.821 C 205.830 159.217,206.493 158.724,206.788 158.724 C 207.083 158.724,207.707 158.185,208.175 157.527 C 208.644 156.869,209.256 156.331,209.534 156.331 C 209.813 156.331,210.613 155.703,211.311 154.935 C 212.010 154.167,212.712 153.539,212.871 153.537 C 213.030 153.536,213.798 152.953,214.577 152.241 C 215.357 151.530,216.624 150.470,217.394 149.887 C 218.164 149.304,219.590 148.097,220.564 147.206 C 221.537 146.314,222.524 145.580,222.757 145.574 C 222.989 145.568,223.578 145.025,224.065 144.367 C 224.551 143.709,225.200 143.170,225.506 143.170 C 225.813 143.170,226.391 142.767,226.791 142.273 C 227.190 141.780,228.235 140.848,229.113 140.203 C 229.990 139.557,231.095 138.660,231.568 138.209 C 232.041 137.757,233.118 136.820,233.961 136.127 C 234.804 135.433,236.145 134.311,236.942 133.634 C 237.739 132.957,238.488 132.403,238.606 132.403 C 238.725 132.403,239.348 131.909,239.991 131.306 C 241.614 129.784,243.256 128.381,244.666 127.315 C 245.957 126.339,248.150 124.487,250.093 122.732 C 250.761 122.129,251.402 121.635,251.517 121.635 C 251.719 121.635,256.352 117.809,258.425 115.931 C 258.973 115.434,260.140 114.495,261.017 113.845 C 261.894 113.194,262.939 112.258,263.339 111.765 C 263.739 111.271,264.317 110.867,264.623 110.867 C 264.930 110.867,265.579 110.329,266.065 109.671 C 266.552 109.013,267.140 108.470,267.373 108.464 C 267.606 108.458,268.535 107.785,269.437 106.968 C 270.339 106.152,271.933 104.766,272.980 103.888 C 274.027 103.011,275.466 101.800,276.178 101.196 C 276.890 100.593,277.596 100.100,277.745 100.100 C 277.895 100.100,278.471 99.561,279.024 98.903 C 279.578 98.245,280.227 97.707,280.466 97.707 C 280.705 97.707,281.487 97.124,282.204 96.411 C 283.979 94.645,286.318 92.654,287.617 91.802 C 288.210 91.414,289.107 90.706,289.611 90.230 C 292.312 87.677,293.629 86.540,293.889 86.540 C 294.048 86.540,294.600 86.092,295.115 85.543 C 295.630 84.995,296.217 84.546,296.420 84.546 C 296.623 84.546,297.284 84.053,297.889 83.450 C 299.182 82.161,302.381 79.438,303.619 78.573 C 304.096 78.239,305.083 77.388,305.813 76.681 C 307.234 75.304,307.221 75.175,305.452 73.180 C 301.819 69.084,300.698 67.735,300.698 67.459 C 300.698 67.289,300.145 66.740,299.470 66.241 C 297.595 64.855,297.187 65.061,291.636 70.197 C 290.930 70.851,290.212 71.387,290.041 71.389 C 289.871 71.391,289.103 71.978,288.335 72.693 C 287.567 73.408,286.138 74.618,285.159 75.381 C 284.180 76.145,282.744 77.352,281.969 78.064 C 281.193 78.776,280.368 79.359,280.135 79.360 C 279.902 79.361,279.313 79.900,278.827 80.558 C 278.340 81.216,277.691 81.755,277.385 81.755 C 277.078 81.755,276.468 82.212,276.028 82.771 C 275.588 83.330,274.569 84.235,273.763 84.782 C 272.387 85.716,271.663 86.327,268.726 89.033 C 268.071 89.636,267.401 90.130,267.237 90.130 C 267.073 90.130,266.517 90.578,266.002 91.127 C 265.487 91.675,264.899 92.124,264.697 92.124 C 264.494 92.124,263.833 92.617,263.228 93.220 C 261.508 94.934,258.450 97.459,257.451 97.989 C 256.953 98.253,256.246 98.926,255.880 99.484 C 255.515 100.042,254.996 100.499,254.727 100.500 C 254.457 100.501,253.603 101.085,252.827 101.797 C 252.051 102.508,250.622 103.719,249.651 104.487 C 248.680 105.254,247.251 106.465,246.475 107.177 C 245.699 107.888,244.874 108.472,244.641 108.473 C 244.408 108.474,243.820 109.013,243.333 109.671 C 242.847 110.329,242.198 110.867,241.891 110.867 C 241.585 110.867,241.007 111.271,240.607 111.765 C 240.207 112.258,239.163 113.189,238.285 113.834 C 236.685 115.010,236.332 115.305,233.638 117.731 C 232.125 119.095,231.580 119.501,229.412 120.886 C 228.699 121.341,228.116 121.867,228.116 122.054 C 228.116 122.241,227.325 122.939,226.358 123.604 C 224.569 124.835,222.902 126.255,220.716 128.410 C 220.046 129.071,219.328 129.613,219.120 129.616 C 218.913 129.619,218.004 130.292,217.101 131.112 C 216.197 131.931,214.692 133.230,213.755 133.998 C 212.819 134.766,211.471 135.887,210.759 136.491 C 210.048 137.094,209.369 137.587,209.250 137.587 C 209.052 137.587,207.942 138.535,205.384 140.892 C 204.835 141.397,203.759 142.244,202.991 142.774 C 202.223 143.304,201.119 144.238,200.538 144.850 C 199.223 146.233,199.119 146.229,197.408 144.711 C 196.640 144.030,195.384 143.002,194.616 142.427 C 193.848 141.851,193.093 141.185,192.938 140.946 C 192.783 140.707,191.889 139.988,190.950 139.348 C 190.012 138.709,188.821 137.692,188.305 137.089 C 187.789 136.486,187.118 135.992,186.813 135.992 C 186.509 135.992,185.970 135.550,185.617 135.011 C 185.263 134.471,184.676 133.931,184.311 133.812 C 183.947 133.692,182.895 132.923,181.974 132.101 C 178.436 128.947,174.836 126.022,174.492 126.022 C 174.344 126.022,173.614 125.439,172.868 124.726 C 170.968 122.908,169.776 121.888,168.020 120.578 C 167.184 119.955,166.013 118.995,165.418 118.446 C 164.194 117.318,163.212 116.502,158.126 112.391 C 156.152 110.796,153.998 108.993,153.340 108.386 C 152.682 107.779,151.923 107.281,151.654 107.280 C 151.385 107.279,150.866 106.822,150.500 106.264 C 150.135 105.706,149.428 105.033,148.929 104.768 C 148.021 104.286,145.289 102.057,143.087 100.000 C 142.441 99.397,141.778 98.903,141.614 98.903 C 141.450 98.903,140.894 98.455,140.379 97.906 C 139.864 97.358,139.282 96.909,139.086 96.909 C 138.890 96.909,138.120 96.326,137.375 95.613 C 135.281 93.611,134.058 92.571,132.298 91.296 C 131.407 90.651,130.428 89.765,130.122 89.329 C 129.816 88.892,129.323 88.534,129.026 88.534 C 128.729 88.534,128.063 88.041,127.547 87.438 C 127.031 86.834,125.841 85.818,124.902 85.178 C 123.964 84.539,123.069 83.821,122.914 83.583 C 122.563 83.045,119.379 80.558,119.041 80.558 C 118.904 80.558,118.339 80.020,117.785 79.362 C 117.232 78.704,116.535 78.166,116.238 78.166 C 115.941 78.166,115.429 77.781,115.099 77.311 C 114.770 76.840,114.056 76.164,113.512 75.807 C 112.278 74.998,109.121 72.343,107.660 70.887 C 107.055 70.284,106.393 69.791,106.191 69.791 C 105.988 69.791,105.400 69.342,104.885 68.794 C 104.370 68.245,103.814 67.797,103.650 67.797 C 103.486 67.797,102.813 67.258,102.155 66.600 C 101.053 65.498,98.903 64.919,98.903 65.725 " stroke="none" fill="#fc3c2c" fill-rule="evenodd"></path><path id="path3" d="" stroke="none" fill="#7ca418" fill-rule="evenodd"></path><path id="path4" d="" stroke="none" fill="#f89018" fill-rule="evenodd"></path></g></svg>